<?xml version="1.0" encoding="UTF-8"?>
<svg version="1.1" xmlns="http://www.w3.org/2000/svg" width="1080" height="1080">
    <path
        d="M0 0 C356.4 0 712.8 0 1080 0 C1080 356.4 1080 712.8 1080 1080 C723.6 1080 367.2 1080 0 1080 C0 723.6 0 367.2 0 0 Z "
        fill="transparent" transform="translate(0,0)" />
    <path
        d="M0 0 C4.64933453 0.00436095 9.29866788 0.00285411 13.94800389 0.00209773 C21.98258563 0.00157604 30.01715918 0.00468555 38.05173886 0.01033556 C49.66806951 0.01849894 61.28439625 0.02107072 72.90072946 0.02232356 C91.75224932 0.02450651 110.60376483 0.03114599 129.45528233 0.04062617 C147.75638888 0.04981992 166.05749425 0.05689113 184.35860264 0.06113398 C185.48866922 0.0613967 186.61873579 0.06165943 187.7830468 0.06193011 C193.45285182 0.06323525 199.12265684 0.06449893 204.79246187 0.06574202 C251.75111663 0.07609105 298.70976664 0.09368868 345.6684171 0.11606562 C346.14461266 1.3787711 346.6201232 2.64173493 347.09535134 3.90480483 C347.36022601 4.60808954 347.62510068 5.31137426 347.89800185 6.03597063 C348.98204466 8.96284939 349.97744856 11.91587709 350.96504796 14.87656367 C351.27793515 15.81259676 351.27793515 15.81259676 351.59714329 16.76753962 C352.27734521 18.80379213 352.9553831 20.84075707 353.63326085 22.87778437 C354.11254873 24.31497271 354.5919256 25.75213139 355.07138646 27.18926203 C356.07337357 30.19375485 357.07428405 33.19860357 358.07442296 36.20371211 C359.34422277 40.01878345 360.61669491 43.83295694 361.88999665 47.64686072 C362.88034549 50.61425744 363.86923792 53.58213801 364.85771954 56.55015719 C365.32566167 57.95464198 365.79403497 59.35898321 366.26288235 60.76316607 C368.85729487 68.53621426 371.36424855 76.32861262 373.75366795 84.16738093 C375.06108895 88.3818394 376.48660272 92.54978151 377.94576085 96.71372187 C378.23898732 97.55470927 378.53221379 98.39569666 378.83432591 99.26216853 C379.44730628 101.01769043 380.06152235 102.77278133 380.67696202 104.52744257 C381.60498307 107.17590003 382.52654294 109.82654714 383.44771397 112.47739375 C386.34083923 120.76330528 389.28917181 128.958366 392.82295811 136.99668086 C393.6684171 139.11606562 393.6684171 139.11606562 393.6684171 141.11606562 C394.3284171 141.11606562 394.9884171 141.11606562 395.6684171 141.11606562 C396.02419835 139.85407343 396.3799796 138.59208125 396.7465421 137.29184687 C399.01043917 129.75211972 401.76490761 122.38623115 404.44676793 114.98786128 C410.9333556 97.06789628 417.09629015 79.05630855 423.08003819 60.96298945 C423.69667372 59.09862919 424.31337293 57.23428999 424.93013585 55.36997187 C425.23443516 54.44992869 425.53873448 53.52988551 425.85225499 52.58196223 C429.34925811 42.02895865 432.94189883 31.50877281 436.5434171 20.99106562 C436.84877385 20.09918543 437.1541306 19.20730525 437.46874058 18.28839839 C438.57954807 15.04476798 439.69053154 11.80119966 440.80350316 8.5583111 C441.76821421 5.74732431 442.72860661 2.93549707 443.6684171 0.11606562 C534.7484171 0.11606562 625.8284171 0.11606562 719.6684171 0.11606562 C717.60193391 8.38199835 715.39837313 16.12170654 712.4574796 24.05356562 C712.05312184 25.15961649 711.64876408 26.26566737 711.23215306 27.40523493 C709.9248389 30.97759244 708.60918669 34.54681483 707.2934171 38.11606562 C706.38042104 40.60614588 705.46807272 43.09646373 704.55635655 45.58701289 C703.19196228 49.31370864 701.82709138 53.04022204 700.45981419 56.76586115 C697.14053195 65.81122872 693.8654764 74.87164287 690.61369908 83.94144404 C685.31295322 98.71590422 679.83479596 113.42037458 674.303671 128.10996211 C670.50952488 138.18895045 666.75442336 148.28089738 663.04659092 158.39194453 C656.36025289 176.62377318 649.55412246 194.81013936 642.7309171 212.99106562 C642.46893151 213.68917227 642.20694592 214.38727892 641.93702137 215.10654032 C638.62884409 223.9214047 635.31882583 232.73557718 632.00807774 241.54947627 C628.89331735 249.841928 625.77989558 258.13488189 622.6684171 266.42856562 C622.37337285 267.21498438 622.0783286 268.00140315 621.77434361 268.81165278 C616.60315853 282.59798998 611.4648218 296.39644309 606.33467686 310.19809687 C602.20018501 321.31964082 598.05717549 332.43797887 593.90669835 343.55356562 C593.39346387 344.92813328 592.88022941 346.30270095 592.36699498 347.67726862 C591.58093042 349.7825135 590.7948623 351.88775704 590.00878918 353.99299872 C580.18690925 380.29800699 570.39291046 406.6131283 560.63412678 432.94160903 C554.05281296 450.69722259 547.45235624 468.44559543 540.8352567 486.187904 C536.24771381 498.48962492 531.671796 510.79557916 527.1137296 523.10825312 C526.88217608 523.73371279 526.65062256 524.35917246 526.41205227 525.00358546 C523.93574101 531.69282182 521.46104801 538.38265448 518.98799717 545.07309687 C518.37497242 546.73044352 518.37497242 546.73044352 517.74956334 548.42127192 C516.98559493 550.48671798 516.22215436 552.55235939 515.45934117 554.61823237 C514.94976368 555.99557047 514.94976368 555.99557047 514.42989171 557.40073359 C514.13634297 558.19510828 513.84279423 558.98948298 513.54035008 559.80792964 C513.2526122 560.56961451 512.96487431 561.33129939 512.6684171 562.11606562 C512.36396168 563.01769434 512.05950627 563.91932307 511.74582493 564.84827387 C511.21250805 565.97083079 511.21250805 565.97083079 510.6684171 567.11606562 C507.00673912 568.33662495 503.50225498 568.480366 499.68013585 568.67075312 C498.84101155 568.71279871 498.00188725 568.75484431 497.13733494 568.79816401 C485.93284648 569.3024916 474.72479647 569.26711396 463.51127827 569.24463618 C461.45359985 569.24101758 459.39592867 569.23943065 457.33824742 569.23838007 C399.4482768 569.20247378 341.5561811 568.58419088 283.6684171 568.11606562 C283.39336936 567.31648999 283.11832163 566.51691435 282.83493912 565.69310915 C275.66792638 544.84208729 275.66792638 544.84208729 268.34419835 524.04575312 C267.90883259 522.82228175 267.47346684 521.59881037 267.02490819 520.33826411 C265.90293524 517.18573942 264.77912008 514.03387383 263.65498936 510.88211787 C262.74832193 508.33853971 261.84353371 505.79429469 260.93869793 503.25006449 C255.93186362 489.17424487 250.87813346 475.11819863 245.6684171 461.11606562 C243.27920588 463.47671811 241.10528856 465.74716437 239.1684171 468.49106562 C231.83933123 478.36623591 223.60021834 487.36225841 214.9184171 496.05356562 C214.22192051 496.75086787 213.52542393 497.44817011 212.80782139 498.16660273 C208.25029772 502.67554449 203.52680829 506.93542998 198.6684171 511.11606562 C197.55026936 512.10065328 196.43303666 513.08628137 195.3168546 514.07309687 C181.46490735 526.21291162 166.62393458 535.93554689 150.6684171 545.11606562 C149.99133702 545.50568476 149.31425694 545.8953039 148.61665928 546.29672968 C123.98901585 560.30616275 96.34443661 569.4479706 68.6684171 575.11606562 C67.94041905 575.2676916 67.212421 575.41931757 66.46236241 575.57553828 C45.60211239 579.83653845 24.6172168 580.4932859 3.3883878 580.48667109 C0.63258432 580.48650945 -2.12254778 580.50029001 -4.87821376 580.52768672 C-29.87654276 580.77180786 -54.64564914 579.20566669 -78.8940829 572.55356562 C-80.15526943 572.21695918 -81.41645595 571.88035273 -82.71586025 571.53354609 C-117.68229503 561.98032157 -151.47695535 546.13191242 -180.3315829 524.11606562 C-180.90279872 523.68616328 -181.47401454 523.25626093 -182.06253994 522.81333125 C-190.97667062 516.08661187 -199.30509279 508.87663116 -207.3315829 501.11606562 C-207.98481533 500.48474726 -208.63804775 499.8534289 -209.31107509 499.20297968 C-217.52466478 491.22130312 -225.34510781 483.20642242 -232.3315829 474.11606562 C-233.1153329 473.13766718 -233.8990829 472.15926875 -234.7065829 471.15122187 C-255.66460124 444.82379388 -270.08279792 414.64954484 -281.3315829 383.11606562 C-281.59455165 382.38903437 -281.8575204 381.66200312 -282.1284579 380.91294062 C-291.04446093 356.14626554 -294.47637365 331.77240063 -294.5347079 305.57700312 C-294.53753528 304.7079698 -294.54036266 303.83893649 -294.54327571 302.94356883 C-294.55816233 298.344001 -294.56745805 293.74446369 -294.57181728 289.14487422 C-294.57728618 284.45559513 -294.60131157 279.76660863 -294.62978923 275.07742083 C-294.64863295 271.41542518 -294.6536326 267.753497 -294.65515316 264.09145701 C-294.65813153 262.3655064 -294.665991 260.63955553 -294.67933834 258.91365397 C-294.79207849 243.21605128 -292.83786913 228.05587255 -289.0815829 212.80356562 C-288.87251308 211.94440547 -288.66344326 211.08524531 -288.44803798 210.20005 C-282.82469531 187.73108442 -275.16846251 165.39005078 -264.28421962 144.9109875 C-263.35979485 143.1692215 -262.45665699 141.41620956 -261.55423915 139.66294062 C-251.36694323 120.16616565 -237.52570047 102.81065789 -222.67142665 86.67465937 C-220.66252443 84.47794659 -218.70644178 82.25057193 -216.7690829 79.99106562 C-210.40871857 72.71148779 -203.54550687 66.31433027 -195.99173915 60.28794062 C-193.64760655 58.37408199 -191.46448301 56.38296611 -189.2690829 54.30356562 C-138.28390352 8.59899411 -65.27117764 -0.07692951 0 0 Z "
        fill="#DF3F1F" transform="translate(326.331582903862,252.88393437862396)" />
    <path
        d="M0 0 C0.71028351 -0.00100708 1.42056702 -0.00201416 2.15237427 -0.00305176 C14.9285424 0.00907814 27.35769456 0.95692213 39.9375 3.25 C40.72044434 3.38921875 41.50338867 3.5284375 42.31005859 3.671875 C78.21390676 10.27066777 109.00428068 26.93167856 135.39306641 51.80712891 C137.00092885 53.30925774 138.62821565 54.78753554 140.26171875 56.26171875 C181.98405548 94.00589325 203.4688742 151.78449763 206.84304428 207.17992592 C207.17545618 214.46500357 207.03633203 221.77210018 207 229.0625 C206.99497152 230.8339831 206.99041102 232.60546759 206.98632812 234.37695312 C206.9754372 238.66800387 206.95824804 242.95898606 206.9375 247.25 C188.77096835 247.43202234 170.60429494 247.59669513 152.4375 247.75 C151.7346788 247.75594854 151.0318576 247.76189708 150.30773878 247.76802588 C93.45509842 248.24787211 36.60446839 248.33744026 -20.25 248.3125 C-21.74369928 248.31186365 -21.74369928 248.31186365 -23.26757431 248.31121445 C-48.86589222 248.30012418 -74.46419733 248.28000925 -100.0625 248.25 C-99.61563783 251.25365475 -99.16145288 254.2559038 -98.703125 257.2578125 C-98.5788916 258.09803955 -98.4546582 258.9382666 -98.32666016 259.80395508 C-95.58300321 277.62046949 -88.1303124 292.87313677 -76.0625 306.25 C-75.36382812 307.03117187 -74.66515625 307.81234375 -73.9453125 308.6171875 C-59.71228615 323.68438389 -37.73486128 336.32191497 -16.76586914 337.364151 C-14.12486497 337.43101043 -11.48552049 337.4671389 -8.84375 337.48828125 C-7.86821167 337.496353 -6.89267334 337.50442474 -5.88757324 337.51274109 C-3.82675928 337.52652411 -1.76592305 337.53727191 0.29492188 337.54516602 C2.37572045 337.55664339 4.45649058 337.5770272 6.53710938 337.60668945 C23.22944741 337.84412815 37.14440034 336.40457742 52.1875 328.5 C53.03666992 328.06316895 53.88583984 327.62633789 54.76074219 327.17626953 C65.25682915 321.66311249 77.14380586 314.68240365 82.69296265 303.81079102 C85.20105849 298.9778946 87.84188562 294.32611165 93.21579742 292.45800781 C100.14013174 291.21648067 107.16485446 291.59478116 114.1640625 291.8125 C116.4398439 291.83356856 118.71568738 291.84869077 120.99154663 291.8581543 C126.96475906 291.90011565 132.9332316 292.02776767 138.90472412 292.17211914 C143.77295977 292.27577294 148.64086267 292.31977277 153.50997353 292.36036682 C163.58500839 292.44506207 173.66012718 292.5689391 183.73291016 292.80078125 C184.65156357 292.81558533 185.57021698 292.8303894 186.51670837 292.84564209 C191.95103867 292.9903234 196.71108323 293.73918591 201.9375 295.25 C200.5495795 303.44575841 197.36628026 310.46849402 193.8125 317.9375 C193.51960083 318.55905975 193.22670166 319.18061951 192.92492676 319.8210144 C186.48245993 333.48669963 180.0011428 345.83870417 169.9375 357.25 C169.30972656 357.98734375 168.68195313 358.7246875 168.03515625 359.484375 C156.83693231 372.3457015 144.60400706 385.01491029 130.9375 395.25 C129.8160743 396.12327181 128.69500419 396.99700037 127.57421875 397.87109375 C118.24095857 405.0387772 108.38063708 410.84963743 97.9375 416.25 C96.99777344 416.74113281 96.05804688 417.23226563 95.08984375 417.73828125 C81.10715412 424.54126971 65.47459635 429.00662958 50.21435547 431.828125 C48.71592075 432.10576763 47.21994611 432.397093 45.72705078 432.703125 C-7.74883285 443.45158071 -69.66339115 433.93408047 -115.5 404.25 C-127.13031589 396.12199514 -137.85431908 387.09042898 -148.0625 377.25 C-148.61856934 376.71584473 -149.17463867 376.18168945 -149.74755859 375.63134766 C-157.05572558 368.57482487 -163.89915216 361.34976771 -170.0625 353.25 C-170.46033691 352.72857422 -170.85817383 352.20714844 -171.26806641 351.66992188 C-188.70757738 328.61683441 -200.15349865 302.47552101 -206.0625 274.25 C-206.26617187 273.3115625 -206.46984375 272.373125 -206.6796875 271.40625 C-219.15240694 209.23454082 -209.89598755 144.40872303 -174.78857422 91.32373047 C-156.13294749 63.60320214 -131.00339598 40.8678889 -102.0625 24.25 C-101.43150391 23.88664551 -100.80050781 23.52329102 -100.15039062 23.14892578 C-89.20246259 16.91158583 -78.013045 12.21286107 -66.0625 8.25 C-64.87140625 7.84910156 -63.6803125 7.44820313 -62.453125 7.03515625 C-55.78087529 4.95986731 -49.07977694 3.63245584 -42.1875 2.5625 C-41.42187744 2.44293945 -40.65625488 2.32337891 -39.86743164 2.20019531 C-26.6859938 0.31810693 -13.29600516 0.01335394 0 0 Z "
        fill="#FEFEFE" transform="translate(306.0625,316.75)" />
    <path
        d="M0 0 C39.01801779 -0.1419551 77.989976 0.19083177 117 1 C126.22251153 27.87712657 135.30988305 54.7963509 144.27614784 81.75998116 C145.9030917 86.65110385 147.53214604 91.54152357 149.16101074 96.43200684 C153.62240698 109.82802752 158.0807313 123.22507005 162.53897858 136.62213898 C166.63839312 148.94080214 170.73853336 161.25922267 174.8411355 173.57682467 C176.44529052 178.39336314 178.04883994 183.2101011 179.65074158 188.02738953 C186.20618911 207.74060707 192.80250767 227.43878222 199.51367188 247.09960938 C199.79917939 247.93660024 200.08468691 248.7735911 200.37884617 249.63594532 C201.20186213 252.0472132 202.02625039 254.45800561 202.85144043 256.86853027 C203.11161784 257.62932278 203.37179524 258.39011529 203.63985682 259.17396212 C204.97884492 263.07544846 206.34104944 266.96708316 207.73731995 270.84846497 C208.01723801 271.62916178 208.29715608 272.4098586 208.58555651 273.21421289 C209.1184115 274.69581567 209.6553189 276.17596947 210.1969409 277.65438986 C211.24829849 280.57813942 212 282.86648028 212 286 C212.66 286 213.32 286 214 286 C214.14840332 285.47027588 214.29680664 284.94055176 214.44970703 284.39477539 C216.0332462 278.92483042 217.82789825 273.545796 219.7421875 268.18359375 C219.99389709 267.47828522 220.24560669 266.77297668 220.50494385 266.04629517 C221.55315988 263.11603813 222.60464513 260.18698285 223.66064453 257.25952148 C226.71747124 248.77247823 229.5684353 240.28094086 232.05737305 231.60969543 C234.7291726 222.36172009 237.81648856 213.25075354 240.875 204.125 C241.19947113 203.15369141 241.52394226 202.18238281 241.85824585 201.18164062 C246.86355707 186.20321985 252.00200645 171.27454979 257.23461914 156.37417603 C262.16208084 142.34269605 266.97487034 128.27543066 271.73492432 114.18630981 C280.57238851 88.03372727 289.66662575 61.97968436 299 36 C299.29729004 35.17213989 299.59458008 34.34427979 299.90087891 33.49133301 C301.50187042 29.03664356 303.10927825 24.58436917 304.728302 20.13619995 C305.41366704 18.25298706 306.09640742 16.36881961 306.77905273 14.48461914 C307.38148804 12.8428772 307.38148804 12.8428772 307.99609375 11.16796875 C308.50934204 9.76454224 308.50934204 9.76454224 309.03295898 8.33276367 C310 6 310 6 312 3 C323.58439055 -1.73906886 338.42941443 -0.16229855 350.7890625 -0.16796875 C352.4666649 -0.17119298 354.14426704 -0.17455786 355.8218689 -0.17805481 C359.31289319 -0.18399383 362.8038929 -0.18589991 366.29492188 -0.18530273 C370.73705804 -0.18520085 375.17903532 -0.19890354 379.6211338 -0.21607494 C383.07696235 -0.22726081 386.53275309 -0.22922001 389.98859787 -0.22869301 C391.6254265 -0.22986127 393.2622565 -0.23421693 394.89906693 -0.24202538 C414.15851039 -0.32538807 414.15851039 -0.32538807 422 2 C423 4 423 4 422.00805664 7.37719727 C421.46316107 8.92248274 420.90872127 10.46441789 420.34765625 12.00390625 C420.03699722 12.87294083 419.7263382 13.7419754 419.40626526 14.63734436 C414.48143036 28.33550512 409.38253396 41.97189706 404.3027916 55.61318588 C403.42804351 57.96290167 402.55406277 60.31290149 401.68032837 62.66299438 C394.69408894 81.45343393 387.68229338 100.23347636 380.55883789 118.97241211 C376.95114636 128.46470399 373.39926194 137.97643661 369.875 147.5 C364.35325732 162.41915957 358.74728237 177.30596336 353.125 192.1875 C345.62043935 212.0518736 338.13992488 231.92494058 330.69320679 251.81106567 C328.53142238 257.58345923 326.36598231 263.35447382 324.19921875 269.125 C323.23268224 271.69980593 322.26619199 274.27462922 321.29971313 276.84945679 C320.71037155 278.41921256 320.12085198 279.98890153 319.53109741 281.5585022 C311.26756644 303.5528327 303.11064981 325.58722374 294.95791626 347.62281799 C293.01557008 352.87253816 291.0713031 358.12154636 289.12653542 363.37036991 C287.72356853 367.15730257 286.32180267 370.94467238 284.92236328 374.73291016 C273.23337368 406.36974752 273.23337368 406.36974752 267 421 C252.37658323 421.78882902 237.80721064 422.13925225 223.1640625 422.09765625 C221.17768388 422.09578358 219.19130479 422.09436371 217.20492554 422.09336853 C212.05953623 422.08961007 206.91417665 422.07983965 201.76879883 422.06866455 C196.48519289 422.05830414 191.20158199 422.05384007 185.91796875 422.04882812 C175.61196634 422.03820901 165.30598567 422.02121642 155 422 C151.46620693 413.76250413 148.30202282 405.45034178 145.33984375 396.9921875 C144.46247518 394.51207284 143.58398287 392.03240974 142.70263672 389.55371094 C142.47942655 388.92587015 142.25621637 388.29802937 142.02624226 387.6511631 C138.44639173 377.61158769 134.6633302 367.64675327 130.90130615 357.67440796 C128.58899539 351.54406996 126.28479795 345.4106855 123.98046875 339.27734375 C123.5353595 338.09294205 123.09025024 336.90854034 122.63165283 335.68824768 C119.50740575 327.36847569 116.41729269 319.03758303 113.375 310.6875 C105.37685877 288.74492152 97.17221132 266.87818823 89 245 C88.6367865 244.02742249 88.273573 243.05484497 87.89935303 242.05279541 C78.67602086 217.33170965 78.67602086 217.33170965 69.25 192.6875 C61.82060835 173.49714855 54.7211951 154.1801769 47.55859375 134.88916016 C45.8806092 130.36997021 44.20096861 125.85140249 42.51953125 121.33349609 C33.22834341 96.36747952 23.99924364 71.37892485 14.89788818 46.3430481 C13.97787868 43.8124248 13.05549663 41.28270724 12.13189697 38.75338745 C0 5.50934088 0 5.50934088 0 0 Z "
        fill="#FEFEFE" transform="translate(499,323)" />
    <path
        d="M0 0 C1.22533447 0.00491455 2.45066895 0.0098291 3.71313477 0.01489258 C19.29341734 0.2128051 34.47816654 1.46958415 48.6875 8.3125 C50.28078125 9.05113281 50.28078125 9.05113281 51.90625 9.8046875 C71.43865545 19.5243845 87.30643292 36.74311533 94.99609375 57.19140625 C96.3291717 61.28101828 96.80152998 64.73398152 96.75 69.0625 C96.74097656 70.04734375 96.73195313 71.0321875 96.72265625 72.046875 C96.70525391 73.16835938 96.70525391 73.16835938 96.6875 74.3125 C77.65651723 75.23152238 58.65193958 75.46350677 39.60350776 75.4468255 C35.70595219 75.44423829 31.80839859 75.44665608 27.9108429 75.44821167 C21.38855557 75.45001244 14.86627971 75.44767988 8.34399414 75.44287109 C0.84106529 75.43740264 -6.66183648 75.43921822 -14.1647647 75.4446975 C-20.6682007 75.44925334 -27.17162862 75.44986801 -33.6750657 75.44725883 C-37.53327802 75.44571341 -41.39147764 75.4454546 -45.2496891 75.44879532 C-48.86724606 75.45171136 -52.48476836 75.44963074 -56.10232162 75.44390106 C-58.03784387 75.44197844 -59.97336911 75.44489313 -61.90888977 75.44802856 C-84.23015348 75.39484652 -84.23015348 75.39484652 -87.3125 72.3125 C-89.26015419 59.65274775 -79.69343721 46.76641437 -72.58398438 36.99755859 C-58.52536569 18.36610964 -39.14025159 5.01895397 -16.09326172 0.68969727 C-10.74080543 -0.03633829 -5.39354436 -0.02564284 0 0 Z "
        fill="#DF4020" transform="translate(297.3125,409.6875)" />
</svg>