<?xml version="1.0" standalone="no"?>
<!DOCTYPE svg PUBLIC "-//W3C//DTD SVG 20010904//EN"
 "http://www.w3.org/TR/2001/REC-SVG-20010904/DTD/svg10.dtd">
<svg version="1.0" xmlns="http://www.w3.org/2000/svg"
 width="1344.000000pt" height="768.000000pt" viewBox="0 0 1344.000000 768.000000"
 preserveAspectRatio="xMidYMid meet">

<g transform="translate(0.000000,768.000000) scale(0.100000,-0.100000)"
fill="#DF3F1F" stroke="none">
<path d="M5508 4760 c-218 -46 -343 -113 -483 -261 -124 -131 -190 -253 -236
-439 -19 -80 -23 -120 -23 -255 1 -140 4 -172 27 -259 90 -337 326 -586 652
-689 121 -38 229 -50 384 -44 199 8 364 61 523 168 65 44 175 149 219 207 l24
33 66 -183 65 -183 382 -3 c301 -2 383 0 387 10 15 45 384 1038 480 1293 116
308 225 608 225 619 0 4 -210 5 -466 4 l-467 -3 -79 -235 c-44 -129 -83 -239
-87 -243 -4 -4 -44 102 -87 235 l-80 243 -670 2 c-616 2 -676 0 -756 -17z
m366 -220 c119 -30 209 -82 302 -176 70 -69 89 -96 132 -185 60 -124 85 -229
86 -359 l1 -95 -519 -3 -519 -2 5 -43 c11 -95 85 -188 186 -235 50 -24 70 -27
158 -27 96 0 105 2 170 35 47 24 78 48 99 77 l30 42 188 0 c137 1 187 -2 187
-11 0 -6 -19 -50 -41 -97 -34 -70 -58 -102 -128 -171 -146 -146 -288 -202
-506 -202 -221 0 -372 59 -515 202 -139 138 -197 276 -207 491 -9 184 27 325
116 461 99 151 262 268 423 303 97 21 260 19 352 -5z m1030 -487 c89 -265 163
-482 166 -482 3 0 26 64 52 142 73 224 272 801 281 815 11 16 377 18 377 1 0
-6 -76 -211 -169 -457 -93 -246 -205 -546 -250 -667 -45 -121 -88 -236 -95
-255 l-14 -35 -189 -3 -190 -2 -42 117 c-24 65 -140 377 -259 693 -118 316
-217 585 -220 598 l-4 22 198 -2 198 -3 160 -482z"/>
<path d="M5603 4240 c-55 -12 -96 -33 -144 -77 -43 -39 -89 -118 -89 -153 0
-20 3 -20 313 -18 l312 3 -3 29 c-8 76 -94 171 -180 201 -58 20 -154 27 -209
15z"/>
</g>
</svg>
